<?xml version="1.0" encoding="UTF-8"?>
<!-- Generated by Pixelmator Pro 3.8 -->
<svg width="1461" height="891" viewBox="0 0 1461 891" xmlns="http://www.w3.org/2000/svg">
    <path id="Circle" fill="#0098a1" fill-rule="evenodd" stroke="none" d="M 623.429199 166 L 836.681885 166 L 824.222839 254 L 1035 254 L 1010.119141 342 L 1222 342 L 1184.889648 430.770569 L 1397 430 L 1133 887 L 1182.181274 437.249268 L 995 885 L 1009.274658 344.986816 L 855.744812 888 L 823.569336 258.615784 L 734.036377 891 L 636.963501 254.713745 L 604.588562 888 L 451.058716 344.986816 L 465.333374 885 L 278.15213 437.249268 L 327.333374 887 L 63.333374 430 L 275.443726 430.770569 L 238.333374 342 L 450.214233 342 L 425.333374 254 L 636.854614 254 L 623.429199 166 Z M 214.666672 344.888916 C 214.666672 302.915222 166.761139 268.888916 107.666664 268.888916 C 48.572201 268.888916 0.666667 302.915222 0.666667 344.888916 C 0.666667 386.862518 48.572201 420.888885 107.666664 420.888885 C 166.761139 420.888885 214.666672 386.862518 214.666672 344.888916 Z M 1460.111084 344.888916 C 1460.111084 302.915222 1412.205566 268.888916 1353.111084 268.888916 C 1294.016602 268.888916 1246.111084 302.915222 1246.111084 344.888916 C 1246.111084 386.862518 1294.016602 420.888885 1353.111084 420.888885 C 1412.205566 420.888885 1460.111084 386.862518 1460.111084 344.888916 Z M 309.222198 180 C 368.316681 180 416.222198 214.026367 416.222198 256 C 416.222198 297.973633 368.316681 332 309.222198 332 C 250.127762 332 202.222229 297.973633 202.222229 256 C 202.222229 214.026367 250.127762 180 309.222198 180 Z M 1151.666626 179 C 1210.761108 179 1258.666626 213.026367 1258.666626 255 C 1258.666626 296.973633 1210.761108 331 1151.666626 331 C 1092.572144 331 1044.666626 296.973633 1044.666626 255 C 1044.666626 213.026367 1092.572144 179 1151.666626 179 Z M 506.666656 91.111084 C 565.761169 91.111084 613.666687 125.137451 613.666687 167.111084 C 613.666687 209.084778 565.761169 243.111084 506.666656 243.111084 C 447.572205 243.111084 399.666656 209.084778 399.666656 167.111084 C 399.666656 125.137451 447.572205 91.111084 506.666656 91.111084 Z M 952.111145 91.111084 C 1011.205627 91.111084 1059.111084 125.137451 1059.111084 167.111084 C 1059.111084 209.084778 1011.205627 243.111084 952.111145 243.111084 C 893.016663 243.111084 845.111145 209.084778 845.111145 167.111084 C 845.111145 125.137451 893.016663 91.111084 952.111145 91.111084 Z M 728.888916 0.222229 C 787.983398 0.222229 835.888916 34.248596 835.888916 76.222229 C 835.888916 118.195862 787.983398 152.222229 728.888916 152.222229 C 669.794434 152.222229 621.888916 118.195862 621.888916 76.222229 C 621.888916 34.248596 669.794434 0.222229 728.888916 0.222229 Z"/>
</svg>
